<svg width="24" height="24" viewBox="0 0 24 24" fill="none" xmlns="http://www.w3.org/2000/svg">
<path d="M20.25 4.5V20.25C20.25 20.6478 20.092 21.0294 19.8107 21.3107C19.5294 21.592 19.1478 21.75 18.75 21.75H5.25C4.85218 21.75 4.47064 21.592 4.18934 21.3107C3.90804 21.0294 3.75 20.6478 3.75 20.25V4.5C3.75 4.10218 3.90804 3.72065 4.18934 3.43934C4.47064 3.15804 4.85218 3 5.25 3H8.64937C9.07079 2.52818 9.58709 2.15068 10.1645 1.89221C10.7419 1.63374 11.3674 1.50014 12 1.50014C12.6326 1.50014 13.2581 1.63374 13.8355 1.89221C14.4129 2.15068 14.9292 2.52818 15.3506 3H18.75C19.1478 3 19.5294 3.15804 19.8107 3.43934C20.092 3.72065 20.25 4.10218 20.25 4.5ZM9 6H15C15 5.20435 14.6839 4.44129 14.1213 3.87868C13.5587 3.31607 12.7956 3 12 3C11.2044 3 10.4413 3.31607 9.87868 3.87868C9.31607 4.44129 9 5.20435 9 6Z" fill="white"/>
<path d="M8.8948 12.2485C8.73952 12.2876 8.58356 12.3882 8.46124 12.5284C8.33891 12.6685 8.26024 12.8366 8.24253 12.9957C8.22482 13.1549 8.26952 13.292 8.3668 13.3769L11.3011 15.9384C11.3984 16.0233 11.5403 16.0491 11.6956 16.01C11.8509 15.971 12.0068 15.8703 12.1291 15.7302C12.2515 15.59 12.3301 15.4219 12.3478 15.2628C12.3656 15.1037 12.3208 14.9666 12.2236 14.8816L9.28925 12.3202C9.19197 12.2353 9.05009 12.2095 8.8948 12.2485Z" fill="#003B83"/>
<path d="M14.9555 11.1731L11.2099 14.8075C11.0857 14.928 11.0106 15.0973 11.001 15.2781C10.9915 15.4589 11.0483 15.6364 11.159 15.7715C11.2697 15.9067 11.4252 15.9885 11.5912 15.9989C11.7573 16.0093 11.9204 15.9474 12.0445 15.8269L15.7901 12.1925C15.9143 12.072 15.9894 11.9027 15.999 11.7219C16.0085 11.5411 15.9517 11.3636 15.841 11.2285C15.7303 11.0933 15.5748 11.0115 15.4088 11.0011C15.2427 10.9907 15.0796 11.0526 14.9555 11.1731Z" fill="#003B83"/>
</svg>
