<svg width="24" height="24" viewBox="0 0 24 24" fill="none" xmlns="http://www.w3.org/2000/svg">
<path d="M23.8406 11.1166L21.4481 6.3297C21.36 6.15352 21.238 5.99642 21.0892 5.86737C20.9403 5.73833 20.7675 5.63988 20.5806 5.57763C20.3937 5.51539 20.1963 5.49057 19.9998 5.5046C19.8033 5.51863 19.6115 5.57123 19.4353 5.65939L17.1038 6.8247L12.1922 5.52533C12.0662 5.49253 11.9339 5.49253 11.8078 5.52533L6.89627 6.8247L4.56471 5.65939C4.38853 5.57123 4.19672 5.51863 4.00022 5.5046C3.80371 5.49057 3.60637 5.51539 3.41946 5.57763C3.23255 5.63988 3.05973 5.73833 2.91087 5.86737C2.76201 5.99642 2.64003 6.15352 2.5519 6.3297L0.159395 11.1156C0.0712288 11.2918 0.0186297 11.4836 0.00460137 11.6801C-0.00942693 11.8766 0.0153904 12.074 0.0776361 12.2609C0.139882 12.4478 0.238337 12.6206 0.367378 12.7695C0.496419 12.9183 0.65352 13.0403 0.829708 13.1285L3.36096 14.395L8.56315 18.1103C8.6398 18.1649 8.72596 18.2046 8.81721 18.2275L14.8172 19.7275C14.9429 19.759 15.0745 19.7575 15.1994 19.723C15.3243 19.6885 15.4381 19.6222 15.5297 19.5306L20.6925 14.3669L23.1694 13.1285C23.525 12.9504 23.7953 12.6385 23.921 12.2613C24.0467 11.884 24.0184 11.4723 23.8406 11.1166ZM18.6947 14.245L15.4688 11.6613C15.3243 11.5455 15.142 11.4873 14.9572 11.4979C14.7723 11.5085 14.5979 11.587 14.4675 11.7185C12.7978 13.4003 10.9369 13.1875 9.75002 12.4375L13.8038 8.50002H16.786L19.3369 13.601L18.6947 14.245ZM3.89346 7.00002L5.81252 7.95814L3.41533 12.7441L1.50002 11.7869L3.89346 7.00002ZM14.7685 18.1685L9.32065 16.8072L4.70815 13.5128L7.33315 8.26283L12 7.02627L12.9188 7.26908L8.70002 11.3641L8.69252 11.3725C8.53371 11.5313 8.41259 11.7238 8.3381 11.9356C8.2636 12.1475 8.23764 12.3734 8.26211 12.5967C8.28659 12.8199 8.36088 13.0348 8.47951 13.2255C8.59814 13.4162 8.75808 13.5778 8.94752 13.6985C10.875 14.9294 13.201 14.7297 15.0328 13.2297L17.625 15.3119L14.7685 18.1685ZM20.581 12.7431L18.1885 7.96189L20.1066 7.00002L22.5 11.7869L20.581 12.7431Z" fill="#003B83"/>
<path d="M14.7685 18.1685L9.32065 16.8072L4.70815 13.5128L7.33315 8.26283L12 7.02627L12.9188 7.26908L8.70002 11.3641L8.69252 11.3725C8.53371 11.5313 8.41259 11.7238 8.3381 11.9356C8.2636 12.1475 8.23764 12.3734 8.26211 12.5967C8.28659 12.8199 8.36088 13.0348 8.47951 13.2255C8.59814 13.4162 8.75808 13.5778 8.94752 13.6985C10.875 14.9294 13.201 14.7297 15.0328 13.2297L17.625 15.3119L14.7685 18.1685Z" fill="white"/>
<path d="M18.6947 14.245L15.4688 11.6613C15.3243 11.5455 15.142 11.4873 14.9572 11.4979C14.7723 11.5085 14.5979 11.587 14.4675 11.7185C12.7978 13.4003 10.9369 13.1875 9.75002 12.4375L13.8038 8.50002H16.786L19.3369 13.601L18.6947 14.245Z" fill="white"/>
<path d="M20.581 12.7431L18.1885 7.96189L20.1066 7.00002L22.5 11.7869L20.581 12.7431Z" fill="white"/>
<path d="M3.89346 7.00002L5.81252 7.95814L3.41533 12.7441L1.50002 11.7869L3.89346 7.00002Z" fill="white"/>
</svg>
