<svg width="313" height="24" viewBox="0 0 313 24" fill="none" xmlns="http://www.w3.org/2000/svg">
<g clip-path="url(#clip0_6_714)">
<path d="M76.0295 21.3209H71.8418V6.31814L66.505 21.3209H62.0981L57.1469 6.31814V21.3209H52.9591V1.33209H59.271L64.3885 16.9749L69.7252 1.33209H76.0371V21.3209H76.0295ZM96.4391 21.3209H91.1024L82.7193 6.58605V21.3209H78.6374V1.33209H84.08L92.2438 16.2307V1.33209H96.4315V21.3209H96.4391ZM114.294 21.3209H107.324C105.586 21.3209 104.165 21.1572 103.189 20.8893C102.207 20.5693 101.284 20.0856 100.468 19.334C99.7046 18.5302 99.0545 17.4065 98.5632 16.067C98.1248 14.6753 97.8526 13.12 97.8526 11.2967C97.8526 9.10139 98.2911 7.17395 99.047 5.50698C99.8105 3.95163 100.846 2.82791 102.26 2.18791C102.91 1.92 103.673 1.75628 104.603 1.6C105.533 1.44372 106.455 1.33209 107.43 1.33209H114.286V4.81488H107.974C106.939 4.81488 106.122 4.9786 105.359 5.24651C104.648 5.51442 104.104 5.94605 103.62 6.48186C103.295 6.91349 103.076 7.50139 102.91 8.25302C102.69 9.00465 102.638 9.91256 102.638 10.9842C102.638 12.4874 102.804 13.7153 103.129 14.6828C103.454 15.6502 103.892 16.3944 104.542 16.826C104.92 17.146 105.412 17.3619 105.956 17.5256C106.553 17.6298 107.264 17.7414 108.08 17.7414H114.286V21.3284L114.294 21.3209ZM129.639 21.3209H125.065C123.705 21.3209 122.722 21.2688 122.072 21.2167C121.581 21.1647 121.089 21.1126 120.492 20.9488C119.404 20.6809 118.481 20.2493 117.718 19.5572C117.007 18.9172 116.463 18.1135 116.191 17.094C116.025 16.6102 115.919 15.9702 115.813 15.2186C115.707 14.3628 115.647 13.4474 115.647 12.4874V1.33209H120.001V12.48C120.054 14.1395 120.167 15.2633 120.273 15.6949C120.379 16.1265 120.598 16.4986 120.984 16.8186C121.361 17.1907 121.853 17.4065 122.51 17.5181C123.108 17.6223 124.09 17.734 125.451 17.734H129.639V21.3209Z" fill="#003B83"/>
<path d="M153.533 21.3209H148.96C147.599 21.3209 146.616 21.2688 145.966 21.2167C145.528 21.1647 144.984 21.1126 144.387 20.9488C143.298 20.6809 142.429 20.2493 141.665 19.5572C140.902 18.9172 140.41 18.1135 140.085 17.094C139.98 16.6102 139.813 15.9702 139.707 15.2186C139.655 14.3628 139.602 13.4474 139.602 12.4874V1.33209H143.903V12.48C143.956 14.1395 144.069 15.2633 144.175 15.6949C144.281 16.1265 144.553 16.4986 144.938 16.8186C145.263 17.1907 145.755 17.4065 146.405 17.5181C147.002 17.6223 147.985 17.734 149.345 17.734H153.533V21.3209ZM158.862 21.3209H154.508V1.33209H158.862V21.3209ZM179.272 21.3209H173.935L165.552 6.58605V21.3209H161.47V1.33209H166.913L175.077 16.2307V1.33209H179.264V21.3209H179.272ZM197.074 21.3209H191.359C189.235 21.3209 187.549 21.1572 186.355 20.7851C185.213 20.4651 184.178 19.8772 183.361 19.0735C182.545 18.1656 181.895 17.0344 181.403 15.6949C180.912 14.3033 180.693 12.8 180.693 11.1926C180.693 9.3693 180.965 7.76186 181.562 6.42232C182.106 5.0307 182.976 3.84744 184.117 2.93953C184.881 2.35163 185.644 1.92 186.513 1.65209C187.277 1.43628 188.365 1.33209 189.726 1.33209H197.074V4.81488H191.359C189.945 4.81488 188.91 4.91907 188.199 5.13488C187.549 5.3507 187.005 5.72279 186.513 6.3107C186.188 6.79442 185.969 7.2186 185.916 7.54605C185.81 7.91814 185.697 8.61767 185.644 9.58512H197.074V13.2316H185.644C185.75 14.8912 186.294 16.0744 187.171 16.7144C188.048 17.3544 189.514 17.734 191.631 17.734H197.074V21.3209Z" fill="#003B83"/>
<path d="M298.63 21.3209V17.6744C299.394 17.6744 300.044 17.5702 300.588 17.4065C301.298 17.1907 301.782 16.8707 302.054 16.4391C302.546 15.9033 302.871 15.1516 303.09 14.1916C303.362 13.2837 303.468 12.3163 303.468 11.2967C303.468 10.0614 303.302 8.93767 303.03 7.97767C302.705 6.95814 302.266 6.26604 301.669 5.83442C301.23 5.46232 300.747 5.19442 300.202 5.0307C299.764 4.92651 299.28 4.86697 298.623 4.81488V1.33209C300.527 1.38418 302.054 1.6 303.196 1.97209C304.504 2.40372 305.479 3.09581 306.242 4.06325C306.892 4.76279 307.384 5.77488 307.709 7.11442C308.087 8.45395 308.306 9.84558 308.306 11.2967C308.306 12.1526 308.2 13.0679 308.034 14.08C307.867 15.0474 307.656 15.9033 307.384 16.707C307.006 17.7786 306.461 18.6344 305.751 19.334C305.04 20.0335 304.171 20.5098 303.082 20.8372C302.485 21.0009 301.888 21.1572 301.178 21.2093C300.58 21.2614 299.711 21.3135 298.623 21.3135L298.63 21.3209ZM313 21.3209H309.357V17.466H313V21.3209ZM298.63 1.33209V4.81488H293.838V17.7265H298.139C298.305 17.7265 298.464 17.7265 298.63 17.6744V21.3209H289.484V1.33209H298.63ZM271.742 21.3209V17.734H272.181V21.3209H271.742ZM271.742 4.81488H277.782V21.3209H282.083V4.81488H288.834V1.33209H271.742V4.81488ZM271.742 1.33209V4.81488H271.304V1.33209H271.742ZM271.742 17.7265H268.038C266.625 17.7265 265.642 17.6223 265.045 17.5107C264.448 17.3991 263.957 17.1907 263.579 16.8112C263.201 16.4912 262.928 16.1116 262.868 15.6874C262.702 15.2558 262.649 14.1321 262.543 12.4726V1.33209H258.242V12.48C258.242 13.4474 258.295 14.3553 258.408 15.2112C258.514 15.9628 258.627 16.6028 258.786 17.0865C259.058 18.106 259.602 18.9098 260.313 19.5498C261.076 20.2493 261.999 20.6735 263.034 20.9414C263.631 21.1051 264.176 21.1572 264.667 21.2093C265.264 21.2614 266.3 21.3135 267.608 21.3135H271.742V17.7265ZM234.083 21.4772V18.0465C235.882 18.0465 237.243 17.5107 238.059 16.4391C238.928 15.3153 239.367 13.6558 239.367 11.2967C239.367 8.93767 238.928 7.22605 238.059 6.15442C237.243 5.13488 235.882 4.59907 234.083 4.54698V1.22791C235.935 1.22791 237.515 1.49581 238.875 1.97953C240.289 2.46325 241.377 3.21488 242.141 4.22697C242.738 5.0307 243.229 6.05023 243.554 7.33767C243.88 8.57302 244.046 9.96465 244.046 11.5721C244.046 13.3433 243.774 14.8912 243.229 16.2902C242.685 17.6893 241.869 18.7535 240.833 19.5572C240.07 20.1451 239.148 20.6288 238.059 20.9488C236.918 21.2688 235.663 21.4847 234.355 21.4847H234.083V21.4772ZM248.778 21.3209H245.134V17.466H248.778V21.3209ZM251.008 17.8381H255.528L251.885 24H248.997L251.008 17.8381ZM223.47 21.3209H216.5C214.762 21.3209 213.401 21.1572 212.366 20.8893C211.383 20.5693 210.461 20.0856 209.644 19.334C208.828 18.5302 208.178 17.4065 207.739 16.067C207.248 14.6753 207.029 13.12 207.029 11.2967C207.029 9.10139 207.407 7.17395 208.223 5.50698C208.987 3.95163 210.075 2.82791 211.436 2.18791C212.086 1.92 212.902 1.75628 213.779 1.6C214.701 1.43628 215.684 1.33209 216.667 1.33209H223.47V4.81488H217.158C216.175 4.81488 215.306 4.9786 214.603 5.24651C213.9 5.51442 213.295 5.94604 212.865 6.48186C212.539 6.91349 212.267 7.50139 212.101 8.25302C211.935 9.00465 211.829 9.91256 211.829 10.9842C211.829 12.4874 211.995 13.7153 212.32 14.6828C212.645 15.6502 213.137 16.3944 213.734 16.826C214.112 17.146 214.603 17.3619 215.2 17.5256C215.745 17.6298 216.455 17.7414 217.271 17.7414H223.477V21.3284L223.47 21.3209ZM234.083 1.22791V4.54698H234.03C233.047 4.54698 232.178 4.7107 231.475 5.0307C230.712 5.40279 230.114 5.88651 229.676 6.58605C229.404 7.06977 229.132 7.70977 229.026 8.46139C228.86 9.21302 228.807 10.1209 228.807 11.1926C228.807 13.5516 229.245 15.3153 230.061 16.4465C230.931 17.5181 232.238 18.054 234.038 18.054H234.09V21.4847C232.238 21.4326 230.606 21.1126 229.192 20.5767C227.726 19.9367 226.577 19.0735 225.76 17.9498C225.163 17.0419 224.725 16.0744 224.453 15.0549C224.128 13.9312 223.961 12.7479 223.961 11.4679C223.961 9.54046 224.233 7.88093 224.778 6.42977C225.322 5.03814 226.085 3.91442 227.008 3.05116C227.824 2.46325 228.86 1.97953 230.054 1.65953C231.248 1.39163 232.556 1.22791 234.03 1.22791H234.083Z" fill="#003B83"/>
<path d="M1.5194 0.692092H8.64763C8.64763 0.692092 9.4111 0.208371 10.2275 1.76372L13.9844 7.38977C13.9844 7.38977 14.7478 8.62511 15.8893 7.49395L20.0241 1.11628C20.0241 1.11628 21.6039 -1.02698 23.1233 1.28L27.2582 8.24558C27.2582 8.24558 27.7495 8.94511 27.7495 7.27814V2.40372C27.7495 2.18791 27.3715 0.580464 29.3823 0.580464H37.7124C37.7124 0.580464 38.8538 0.632557 38.8538 2.77581V20.294C38.8538 20.294 39.2318 22.2214 37.1681 22.0056H28.6264C27.3715 21.9014 27.0465 21.7377 26.3964 20.7181L22.9646 15.4121C22.9646 15.4121 21.4376 13.1051 20.4625 15.5163L16.5469 21.5144C16.5469 21.5144 15.5113 23.6056 13.3872 21.4102L10.1746 15.7321C10.1746 15.7321 9.90245 15.4121 9.68323 15.2484C8.76102 14.6605 8.86685 16.8037 8.86685 17.2279V20.7107C8.86685 21.4623 8.26968 22.0502 7.50621 22.0502H1.5194C0.808839 22.0502 0.21167 21.4623 0.21167 20.7107V2.03163C0.21167 1.28 0.816399 0.692092 1.5194 0.692092Z" stroke="#008CD6" stroke-width="0.57" stroke-miterlimit="10"/>
<path d="M1.5194 0.692092H8.64763C8.64763 0.692092 9.4111 0.208371 10.2275 1.76372L13.9844 7.38977C13.9844 7.38977 14.7478 8.62511 15.8893 7.49395L20.0241 1.11628C20.0241 1.11628 21.6039 -1.02698 23.1233 1.28L27.2582 8.24558C27.2582 8.24558 27.7495 8.94511 27.7495 7.27814V2.40372C27.7495 2.18791 27.3715 0.580464 29.3823 0.580464H37.7124C37.7124 0.580464 38.8538 0.632557 38.8538 2.77581V11.5646H0.21167V2.03163C0.21167 1.28 0.816399 0.692092 1.5194 0.692092Z" fill="#008CD6" stroke="#008CD6" stroke-width="0.22" stroke-miterlimit="10"/>
<path d="M0.21167 13.0158C0.37797 13.0679 1.08097 13.2316 1.46648 12.6958C1.46648 12.6958 2.44917 11.7284 3.26555 13.0158C3.26555 13.0158 3.86272 14.0353 5.00414 12.9637C5.00414 12.9637 6.19848 11.8921 7.4533 12.9637C7.4533 12.9637 8.21677 13.9312 9.35819 12.7479C9.35819 12.7479 10.4467 11.7284 11.5881 12.9637C11.5881 12.9637 12.0795 14.1395 13.4401 12.9116C13.4401 12.9116 14.4757 12.1079 15.5113 12.9116C15.5113 12.9116 16.4335 14.2512 17.7942 12.9116C17.7942 12.9116 18.6105 11.7358 19.8654 12.9637C19.8654 12.9637 21.0597 14.4074 21.8232 12.9637C21.8232 12.9637 22.8058 11.7284 24.2194 13.2837C24.2194 13.2837 24.7637 14.2512 26.1243 12.8521C26.1243 12.8521 26.9936 11.7284 27.9234 12.9563C27.9234 12.9563 29.0648 14.1321 30.2062 13.12C30.2062 13.12 31.0226 12.1005 32.2169 13.0679C32.2169 13.0679 33.1391 14.2437 34.2277 12.9637C34.2277 12.9637 35.097 11.6763 36.2384 12.9637C36.2384 12.9637 36.7826 13.6633 38.8538 13.3358M0.21167 15.4791C0.21167 15.4791 1.02805 15.7991 1.57231 15.107C1.57231 15.107 2.49452 14.1991 3.37138 15.4791C3.37138 15.4791 3.91563 16.4465 5.05706 15.427C5.05706 15.427 6.2514 14.3553 7.55912 15.427C7.55912 15.427 8.10338 16.1786 9.02559 15.5312M9.46402 15.1591C9.63032 14.9953 10.6584 14.3033 11.641 15.427C11.641 15.427 12.1853 16.6028 13.493 15.3749C13.493 15.3749 14.5286 14.5191 15.5642 15.3749C15.5642 15.3749 16.5469 16.7144 17.8471 15.3749C17.8471 15.3749 18.6635 14.1991 19.9183 15.427C19.9183 15.427 20.0846 15.6428 20.2962 15.7991M22.5866 14.9953C23.0251 14.8912 23.6222 14.9433 24.2723 15.6949C24.2723 15.6949 24.8166 16.7144 26.1772 15.3228C26.1772 15.3228 27.0465 14.147 27.9763 15.427C27.9763 15.427 29.1177 16.6028 30.2591 15.5907C30.2591 15.5907 31.1284 14.5191 32.2698 15.4865C32.2698 15.4865 33.1921 16.6623 34.2806 15.4344C34.2806 15.4344 35.1499 14.147 36.3518 15.4344C36.3518 15.4344 36.8431 16.134 38.8538 15.8065M0.21167 18.1581C0.21167 18.1581 1.02805 18.5302 1.57231 17.8381C1.57231 17.8381 2.55499 16.9302 3.37138 18.1581C3.37138 18.1581 3.91563 19.1777 5.05706 18.106C5.05706 18.106 6.2514 17.0344 7.55912 18.1581C7.55912 18.1581 8.05046 18.7981 8.86685 18.3219M11.3689 17.8902C11.4747 17.9423 11.5881 18.054 11.641 18.1581C11.641 18.1581 12.1853 19.334 13.493 18.054C13.493 18.054 14.5286 17.2502 15.5642 18.106C15.5642 18.106 16.5469 19.4456 17.8471 18.054C17.8471 18.054 18.3384 17.3544 19.1019 17.6223M25.0887 18.746C25.3608 18.694 25.7388 18.4781 26.1772 17.9944C26.1772 17.9944 27.0465 16.8707 27.9763 18.0986C27.9763 18.0986 29.1177 19.2744 30.2591 18.3144C30.2591 18.3144 31.1284 17.2428 32.2698 18.2102C32.2698 18.2102 33.1921 19.386 34.2806 18.106C34.2806 18.106 35.1499 16.8186 36.3518 18.1581C36.3518 18.1581 36.8431 18.8577 38.8538 18.5302M0.21167 20.3014C0.21167 20.3014 1.02805 20.6735 1.57231 19.9814C1.57231 19.9814 2.49452 19.0735 3.37138 20.3014C3.37138 20.3014 3.91563 21.3209 5.05706 20.2493C5.05706 20.2493 6.2514 19.1777 7.55912 20.3014C7.55912 20.3014 8.05046 20.9414 8.86685 20.4651M12.9488 20.6214C13.1151 20.5172 13.2738 20.4056 13.493 20.1898C13.493 20.1898 14.5286 19.386 15.5642 20.2419C15.5642 20.2419 16.1614 21.0456 17.0912 20.7256M26.0638 20.2493L26.1696 20.1451C26.1696 20.1451 27.0389 19.0214 27.9687 20.2493C27.9687 20.2493 29.1101 21.4251 30.2516 20.4651C30.2516 20.4651 31.1209 19.3935 32.2623 20.3609C32.2623 20.3609 33.1845 21.5367 34.273 20.2567C34.273 20.2567 35.1423 18.9693 36.3442 20.3088C36.3442 20.3088 36.8355 21.0084 38.8463 20.6809" stroke="#008CD6" stroke-width="0.57" stroke-miterlimit="10"/>
<path d="M41.5222 0.364651C42.2857 0.364651 42.8828 0.952558 42.8828 1.70419C42.8828 2.40372 42.2857 3.04372 41.5222 3.04372V2.77581C41.7943 2.77581 42.0135 2.67163 42.1723 2.56H41.9531V2.34419C41.9002 2.34419 41.9002 2.29209 41.9002 2.29209C41.9002 2.12837 41.8472 2.02419 41.7943 1.97209C41.7414 1.92 41.628 1.92 41.5222 1.92V1.6H41.7943C41.7943 1.54791 41.8472 1.54791 41.8472 1.54791C41.9002 1.54791 41.9002 1.49581 41.9002 1.44372C41.9002 1.44372 41.9531 1.39163 41.9531 1.33953C41.9531 1.28744 41.9002 1.28744 41.9002 1.23535C41.9002 1.18326 41.8472 1.18326 41.7943 1.13116H41.5222V0.863255H41.9606C42.0135 0.863255 42.1269 0.915348 42.1798 0.915348C42.2328 0.967441 42.2857 1.01953 42.2857 1.13116C42.3386 1.18326 42.3386 1.23535 42.3386 1.29488C42.3386 1.4586 42.3386 1.56279 42.2857 1.66698C42.2328 1.71907 42.1194 1.77116 42.0135 1.8307C42.1194 1.8307 42.1798 1.88279 42.2328 1.99442C42.2857 2.04651 42.3386 2.15814 42.3386 2.31442V2.4186C42.5049 2.25488 42.6107 1.98698 42.6107 1.71907C42.6107 1.07907 42.1194 0.595348 41.5222 0.595348V0.379534V0.364651ZM41.5222 3.04372C41.1442 3.04372 40.8116 2.88 40.6 2.67163V2.29953C40.6529 2.40372 40.7058 2.46326 40.7663 2.51535V0.848372C40.7134 0.900465 40.6605 1.01209 40.6 1.06419V0.692093C40.8192 0.476279 41.1442 0.372093 41.5222 0.372093V0.587907C41.2501 0.587907 41.0309 0.692093 40.8116 0.855813H41.5222V1.12372H41.1442V1.60744H41.5222V1.92744L41.4693 1.87535H41.1442V2.57488H40.8192C41.0384 2.67907 41.2576 2.7907 41.5298 2.7907V3.0586L41.5222 3.04372ZM40.6 2.67163C40.3279 2.40372 40.1616 2.08372 40.1616 1.70419C40.1616 1.27256 40.3279 0.952558 40.6 0.684651V1.05674C40.4942 1.22046 40.3808 1.42884 40.3808 1.69674C40.3808 1.91256 40.4866 2.12837 40.6 2.28465V2.65674V2.67163Z" fill="#003B83"/>
</g>
<defs>
<clipPath id="clip0_6_714">
<rect width="313" height="24" fill="white"/>
</clipPath>
</defs>
</svg>
